<?xml version="1.0" encoding="UTF-8" standalone="no"?>
<svg xmlns="http://www.w3.org/2000/svg" xmlns:xlink="http://www.w3.org/1999/xlink" style="isolation:isolate" viewBox="10 10 749.018 501.041" width="749.018pt" height="501.041pt"><g><path d=" M 459.118 420.7 C 451.718 415.9 450.718 415.1 445.918 410.5 C 442.218 407 441.018 405.1 441.018 402.9 C 441.018 399.7 444.018 392 445.218 392 C 445.718 392 446.018 391.6 446.018 391.1 C 446.018 390.6 447.618 388.5 449.618 386.4 C 451.618 384.2 457.518 377.3 462.818 371 C 468.118 364.7 474.418 357.3 476.818 354.5 C 479.318 351.8 482.318 348.3 483.618 346.8 C 484.918 345.4 486.018 343.9 486.018 343.5 C 486.018 343.2 487.618 341.2 489.618 339.2 C 491.618 337.2 494.618 333.5 496.318 331 C 498.018 328.5 500.218 325.6 501.218 324.6 C 502.218 323.5 503.018 322.3 503.018 321.9 C 503.018 321.5 503.618 320.5 504.318 319.8 C 505.018 319.1 508.818 314.2 512.718 309 C 516.618 303.8 521.218 298 522.918 296.1 C 524.618 294.2 526.018 292.1 526.018 291.4 C 526.018 290.7 526.418 290 526.818 289.8 C 527.218 289.7 529.118 287.5 531.018 285 C 532.918 282.6 535.018 280 535.718 279.2 C 536.418 278.5 539.318 274.6 542.118 270.5 C 544.918 266.4 547.618 263 548.118 263 C 548.618 263 549.018 262.5 549.018 261.9 C 549.018 261.3 550.618 258.9 552.518 256.6 C 554.418 254.2 556.018 251.9 556.018 251.3 C 556.018 250 562.118 241.8 564.218 240.2 C 565.218 239.5 566.018 238 566.018 237 C 566.018 236 567.118 233.9 568.518 232.4 L 570.918 229.8 L 567.218 225.7 C 561.318 219.2 488.018 146.4 477.418 136.5 C 472.118 131.6 467.118 126.9 466.418 126.2 C 465.618 125.4 465.018 122.9 465.018 120.4 C 465.018 115.5 466.218 113.9 480.618 99.3 C 485.818 93.9 487.218 93 490.318 93 C 494.718 93 496.318 94.2 516.018 113.6 C 557.318 154.3 573.718 170 588.918 183.6 C 591.318 185.7 595.018 189.1 597.018 191 L 600.818 194.6 L 605.218 189.3 C 607.518 186.4 609.818 184 610.318 184 C 610.718 184 611.018 183.4 611.018 182.7 C 611.018 182 611.918 180.9 613.018 180.2 C 614.118 179.5 615.018 178.4 615.018 177.7 C 615.018 177 615.818 175.7 616.818 174.9 C 618.918 173 622.018 169.3 624.218 166 C 625.118 164.6 627.118 162.2 628.518 160.5 C 630.018 158.9 633.618 154.4 636.518 150.5 C 639.318 146.7 643.218 141.8 645.118 139.8 C 647.018 137.8 649.418 134.9 650.518 133.3 C 651.618 131.8 655.118 127.4 658.318 123.5 C 661.418 119.7 665.118 115.2 666.518 113.5 C 667.818 111.9 670.418 108.4 672.218 105.9 C 677.418 98.5 685.718 87.7 688.418 84.8 C 689.818 83.4 693.318 79.1 696.118 75.3 C 698.918 71.6 701.918 68.1 702.618 67.7 C 703.418 67.3 704.018 66.5 704.018 66 C 704.018 65.4 704.818 64.1 705.718 63 C 708.118 60.2 715.518 60.2 717.218 63 C 717.918 64.1 719.018 65 719.718 65 C 720.418 65 721.318 65.6 721.718 66.3 C 722.118 67 723.618 68.3 725.018 69.2 C 726.418 70 729.418 72.6 731.818 74.8 C 735.418 78.3 736.018 79.5 736.018 83 C 736.018 87.1 734.518 89.8 728.818 96.4 C 727.418 98.1 724.318 101.8 722.018 104.5 C 714.418 113.7 710.518 118.2 707.818 121.2 C 706.218 122.8 705.018 124.4 705.018 124.8 C 705.018 125.2 703.918 126.8 702.518 128.3 C 701.118 129.8 697.618 134 694.818 137.7 C 692.018 141.5 688.218 146.3 686.418 148.6 C 684.518 150.9 683.018 153 683.018 153.4 C 683.018 153.8 681.718 155.6 680.018 157.3 C 677.018 160.6 673.118 165.2 664.518 175.9 C 661.818 179.3 658.518 183.2 657.318 184.6 C 656.018 186 655.018 187.5 655.018 188 C 655.018 188.5 653.318 190.7 651.318 193 C 645.918 198.7 645.018 199.8 645.018 200.5 C 645.018 200.8 644.118 202.1 642.918 203.3 C 641.818 204.5 639.418 207.5 637.718 210 C 636.018 212.5 634.418 214.7 634.018 215 C 633.718 215.3 632.218 217.1 630.718 219.1 L 628.018 222.7 L 634.218 228.5 C 637.718 231.7 649.518 242.9 660.518 253.5 C 671.518 264.1 682.318 274.2 684.418 276.1 C 686.618 278 691.618 282.7 695.618 286.5 C 699.518 290.4 705.018 295.5 707.618 297.9 C 710.318 300.4 717.918 307.6 724.518 313.9 C 731.118 320.3 738.818 327.5 741.518 329.8 C 744.318 332.2 749.318 336.9 752.818 340.3 C 757.818 345.3 759.018 347 759.018 349.7 C 759.018 351.4 758.418 353.5 757.818 354.2 C 757.118 354.9 753.018 359.4 748.618 364.3 C 741.718 372 740.418 373 737.418 373 C 732.518 373 731.018 371.9 718.018 359 C 711.718 352.7 701.418 342.8 695.218 337.1 C 689.118 331.4 681.918 324.7 679.218 322.1 C 676.618 319.6 671.518 315.1 668.018 312.1 C 664.418 309.1 660.818 306 660.018 305.1 C 659.218 304.2 656.418 301.8 653.818 299.8 C 651.318 297.7 647.718 294.6 645.818 292.8 C 643.918 291 640.118 287.6 637.418 285.3 C 634.718 283 631.618 280.3 630.418 279.3 C 629.218 278.3 626.118 275.7 623.518 273.5 C 620.918 271.3 617.818 268.6 616.718 267.5 C 615.518 266.4 611.418 262.9 607.518 259.7 L 600.518 254 L 598.618 256.6 C 597.618 258 593.118 263.5 588.618 268.8 C 584.118 274.1 579.118 280.3 577.518 282.5 C 575.918 284.7 572.418 289 569.918 292 C 567.318 295 560.818 303.8 555.418 311.5 C 546.318 324.6 539.418 333.8 537.818 335 C 537.518 335.3 535.218 338.7 532.818 342.7 C 530.318 346.6 526.918 351.8 525.118 354.2 C 523.318 356.6 518.018 363.7 513.318 370 C 508.718 376.3 504.218 382.3 503.418 383.3 C 502.618 384.3 500.618 387 499.018 389.3 C 497.318 391.6 495.318 394.4 494.518 395.5 C 493.718 396.6 490.018 401.6 486.418 406.5 C 482.818 411.5 479.218 416 478.418 416.6 C 477.618 417.2 477.018 418 477.018 418.3 C 477.018 418.7 476.218 419.9 475.318 421 C 472.818 423.9 463.718 423.8 459.118 420.7 Z " fill="rgb(0,0,0)"/><path d=" M 327.718 313.3 C 327.418 312.3 326.818 308.4 326.518 304.5 C 326.118 300.7 325.218 293.1 324.418 287.8 C 323.618 282.5 322.718 273.6 322.418 268 C 322.018 262.5 321.318 257.7 320.818 257.4 C 320.418 257.1 320.018 254.5 320.018 251.5 C 320.018 248.5 319.618 245.9 319.218 245.6 C 318.818 245.4 315.818 246 312.518 247.1 C 309.318 248.1 304.818 249 302.418 249 C 297.818 249 297.718 248.9 296.518 242 C 296.218 240.1 295.218 235.3 294.318 231.3 C 292.418 222.5 292.918 219.9 297.218 218.1 C 300.518 216.8 302.018 216.2 312.318 211.6 L 318.118 209.1 L 317.518 196.8 C 317.118 190 316.218 176.2 315.318 166 C 314.518 155.8 313.618 139.6 313.318 129.9 C 312.818 112.4 312.818 112.3 315.118 110 C 317.118 108.2 338.918 97 340.618 97 C 340.818 97 345.918 94.7 351.818 91.9 C 361.718 87.1 373.318 81.7 380.518 78.5 C 382.218 77.8 388.918 74.5 395.518 71.2 C 402.118 68 410.918 63.8 415.018 62 C 427.718 56.5 442.818 49.1 443.418 48.1 C 443.718 47.6 445.218 46.9 446.718 46.5 C 449.018 46 469.218 36.3 476.518 32.3 C 477.618 31.6 480.818 30.1 483.518 28.9 C 486.318 27.7 496.218 23 505.718 18.4 C 517.518 12.6 523.918 10 526.418 10 L 530.018 10 L 530.018 15 C 530.018 17.7 529.618 23.2 529.118 27.2 C 528.518 31.2 527.618 39.8 526.918 46.3 L 525.818 58.1 L 518.618 61.5 C 514.718 63.3 509.918 65.6 508.018 66.4 C 506.118 67.2 503.418 68.6 502.018 69.4 C 498.718 71.4 492.918 74 491.918 74 C 491.418 74 488.718 75.1 485.818 76.4 C 482.918 77.7 478.918 79.3 477.018 80 C 475.118 80.7 472.218 81.8 470.518 82.5 C 468.918 83.3 464.418 85 460.518 86.3 C 450.818 89.7 440.018 94 436.818 95.6 C 435.418 96.4 433.718 97 433.018 97 C 431.818 97 426.618 99.1 422.018 101.5 C 420.618 102.2 417.118 103.3 414.318 104.1 C 411.418 104.8 409.018 105.7 409.018 106.1 C 409.018 106.6 407.118 107.4 404.818 108.1 C 402.418 108.7 398.718 110 396.518 111 C 394.318 111.9 390.318 113.5 387.518 114.5 C 381.518 116.6 367.418 122.3 360.518 125.5 C 357.818 126.7 353.918 128.3 351.918 128.9 C 349.018 129.8 348.418 130.5 348.618 132.3 C 348.818 133.5 349.418 147.1 350.018 162.5 C 350.618 177.9 351.318 192 351.718 193.8 C 352.218 196.9 352.418 197.1 355.318 196.4 C 357.018 196.1 359.118 195.4 360.018 194.9 C 361.618 194.1 369.718 191.1 387.518 185 C 398.818 181.2 410.118 176.7 413.218 175 C 414.218 174.4 417.618 174 420.918 174 C 426.418 174 426.818 174.2 427.818 176.8 C 429.218 180.4 431.318 202.1 430.418 204.3 C 429.618 206.5 426.518 208.1 417.518 211 C 413.718 212.2 410.118 213.6 409.518 214 C 409.018 214.4 405.418 215.7 401.518 216.9 C 395.018 219 387.918 221.6 372.518 227.6 C 369.218 228.9 363.118 230.9 359.018 232.1 C 354.918 233.3 351.118 234.6 350.618 235 C 349.818 235.8 350.318 241.2 353.018 265.9 C 353.518 270.5 354.118 274.4 354.418 274.7 C 354.718 275.1 361.418 273 385.018 264.9 C 386.918 264.3 390.118 263.1 392.018 262.4 C 393.918 261.7 399.618 260 404.518 258.5 C 409.518 257 416.018 254.9 419.018 253.8 C 422.018 252.7 425.418 251.6 426.518 251.3 C 427.618 251 429.918 250.2 431.718 249.4 C 433.418 248.6 435.418 248 436.118 248 C 437.318 248 442.618 246.4 446.518 244.9 C 447.618 244.5 452.818 242.8 458.018 241.1 C 463.218 239.5 470.218 237.1 473.518 235.9 C 483.018 232.5 492.718 230 496.418 230 C 499.618 230 499.818 230.2 500.418 234.3 C 501.518 242.8 502.218 255.9 501.618 258.3 C 501.218 260.1 500.118 260.9 497.818 261.4 C 494.318 262.1 472.918 268.6 469.518 270 C 468.418 270.4 459.918 273.1 450.518 276 C 430.518 282.1 419.318 285.7 416.518 287 C 415.418 287.5 408.718 289.9 401.518 292.3 C 394.418 294.8 382.718 298.8 375.518 301.4 C 368.418 304 358.218 307.5 353.018 309.1 C 347.818 310.8 342.218 312.6 340.518 313.2 C 338.918 313.8 335.418 314.5 332.818 314.7 C 329.018 315.1 328.118 314.9 327.718 313.3 Z " fill="rgb(0,0,0)"/><path d=" M 266.318 424.4 C 265.618 422.9 265.018 420.8 265.018 419.8 C 265.018 418.8 264.618 417.2 264.118 416.2 C 263.118 414.2 258.518 396.3 256.018 384 C 255.018 379.3 253.518 373.7 252.618 371.5 C 251.818 369.3 251.118 366.1 251.018 364.3 C 251.018 362.6 250.618 360.9 250.218 360.6 C 249.718 360.3 248.618 356.1 247.618 351.3 C 246.718 346.5 245.418 340.7 244.818 338.5 C 244.218 336.3 243.118 331.7 242.418 328.3 C 241.618 324.8 240.318 319 239.418 315.3 C 238.518 311.5 237.418 306.5 237.018 304 C 236.518 301.5 235.018 295 233.618 289.5 C 232.218 284 230.518 276.6 230.018 273 C 229.418 269.4 228.218 263.6 227.418 260 C 226.618 256.4 225.018 248.8 223.918 243 C 222.718 237.2 221.218 229.4 220.418 225.5 C 219.618 221.7 218.718 214.9 218.418 210.4 L 217.718 202.4 L 229.618 194.5 C 236.218 190.1 244.818 184.2 248.918 181.3 C 254.718 177.1 257.118 176 260.118 176 C 264.518 176 264.518 176.1 265.418 187 C 265.718 190.6 266.818 199.6 267.918 207 C 269.818 220.1 273.118 246.2 275.018 264.5 C 275.518 269.5 276.618 277.4 277.518 282 C 278.318 286.7 279.018 292.6 279.018 295.3 C 279.018 297.9 279.418 300.8 279.918 301.8 C 280.518 302.7 281.618 311.2 282.518 320.5 C 284.918 346.2 288.418 373.4 289.518 374.8 C 289.718 375 293.818 373.3 298.618 371.2 C 303.518 369 308.618 366.9 309.918 366.5 C 311.218 366.1 316.218 363.8 320.918 361.5 C 325.618 359.2 333.618 355.3 338.518 353 C 343.518 350.7 351.118 347 355.518 344.8 C 359.918 342.5 366.218 339.4 369.518 337.8 C 376.618 334.4 376.618 334.4 401.518 321 C 407.618 317.8 422.418 310.1 434.418 304.1 C 452.918 294.7 457.118 293 461.018 293 C 465.518 293 465.718 293.1 467.818 297.5 C 469.018 300 470.018 302.9 470.018 303.8 C 470.018 304.8 470.418 306 470.918 306.5 C 472.218 308 476.018 320.1 476.018 323 C 476.018 328.3 474.918 329 438.018 346.9 C 431.118 350.3 424.818 353.4 424.018 354 C 423.218 354.5 416.918 357.7 410.018 361 C 403.118 364.4 390.518 370.6 382.018 374.9 C 373.518 379.2 360.218 385.9 352.518 389.7 C 334.818 398.5 330.418 400.8 326.018 403.2 C 324.118 404.2 320.518 406 318.018 407.1 C 315.518 408.2 312.218 409.8 310.518 410.7 C 305.218 413.4 290.718 420.6 284.618 423.5 C 280.918 425.3 276.518 426.5 273.118 426.8 C 267.818 427.1 267.418 427 266.318 424.4 Z " fill="rgb(0,0,0)"/><path d=" M 152.318 510.2 C 149.418 508.4 147.118 497.4 145.018 476.5 C 144.418 470.5 143.218 461 142.418 455.5 C 140.718 443.8 137.718 416.7 135.518 392 C 134.618 382.4 133.218 370 132.518 364.5 C 131.718 359 130.618 350.5 129.918 345.5 C 129.218 340.6 128.618 336.4 128.518 336.2 C 128.218 335.9 115.518 342.6 112.018 344.9 C 110.618 345.8 107.818 347.4 105.818 348.4 C 103.718 349.5 102.018 350.7 102.018 351.2 C 102.018 351.6 101.418 352 100.718 352 C 100.018 352 97.118 353.6 94.318 355.5 C 91.418 357.4 88.918 359 88.618 359 C 88.418 359 85.318 360.8 81.918 363 C 78.418 365.2 73.518 368.1 71.018 369.5 C 68.518 370.9 64.018 373.6 61.018 375.5 C 47.418 383.8 33.418 391 30.818 391 C 28.518 391 27.018 389.5 21.018 381.1 C 12.218 368.6 11.818 365.6 18.318 361.2 C 23.018 358.1 35.018 351.1 45.018 345.8 C 56.618 339.6 63.518 335.6 63.818 334.8 C 64.018 334.4 64.818 334 65.618 334 C 66.418 334 67.018 333.6 67.018 333 C 67.018 332.5 67.918 332 69.018 332 C 70.118 332 71.018 331.6 71.018 331.2 C 71.018 330.7 73.418 329.2 76.318 327.7 C 79.218 326.3 84.018 323.5 86.918 321.6 C 89.818 319.6 92.718 318 93.318 318 C 93.918 318 95.118 317.4 95.918 316.6 C 96.818 315.9 100.618 313.6 104.418 311.5 C 108.318 309.4 111.918 307.2 112.618 306.5 C 113.318 305.9 115.318 304.7 117.218 303.9 C 123.718 301.3 124.218 300.2 123.018 291.9 C 122.518 287.8 121.418 277.8 120.518 269.5 C 119.718 261.3 118.418 248.7 117.618 241.5 C 115.718 225.5 115.418 222.2 113.518 204.1 C 112.718 196.2 111.918 189.5 111.618 189.2 C 111.318 189 108.118 190.6 104.518 192.9 C 100.918 195.2 96.918 197.5 95.718 198 C 93.518 198.8 90.218 201.2 86.918 204.2 C 85.918 205.1 83.418 206.8 81.318 207.9 C 79.218 208.9 76.518 210.8 75.318 211.9 C 74.118 213.1 72.818 214 72.418 214 C 72.118 214 69.518 215.7 66.718 217.8 C 60.918 222 60.018 222.6 53.318 226 C 50.718 227.4 45.418 230.5 41.718 232.9 C 35.818 236.8 34.018 237.4 29.718 237.5 L 24.518 237.5 L 20.618 226.5 C 8.918 193.3 7.818 187.2 12.818 182.3 C 15.918 179.2 18.318 177.7 28.518 172.5 C 32.418 170.5 38.018 167.5 41.018 165.8 C 46.018 163 57.418 157 69.018 150.9 C 71.518 149.6 73.718 148.2 74.018 147.9 C 74.318 147.6 81.618 143.9 90.218 139.6 C 98.918 135.3 106.218 131.4 106.618 130.9 C 106.918 130.4 107.918 130 108.918 130 C 109.918 130 111.818 129.2 113.118 128.1 C 116.418 125.5 134.918 116 136.618 116 C 137.418 116 138.018 115.7 138.018 115.2 C 138.018 114.8 141.118 112.9 145.018 111 C 148.818 109.1 152.018 107.2 152.018 106.8 C 152.018 106.5 154.418 105.4 157.318 104.4 C 160.118 103.5 163.018 102.1 163.518 101.4 C 164.118 100.6 167.418 98.9 171.018 97.4 C 174.618 96 178.218 94.2 179.018 93.5 C 179.818 92.8 182.418 91.4 184.818 90.5 C 187.118 89.5 189.018 88.5 189.018 88.1 C 189.018 87.7 192.318 85.9 196.318 84.1 C 200.218 82.4 204.218 80.5 205.018 79.9 C 205.818 79.4 208.218 78.2 210.318 77.3 C 212.318 76.4 214.018 75.4 214.018 75 C 214.018 74.5 215.218 73.9 216.818 73.6 C 220.618 72.6 231.018 67.8 231.018 66.9 C 231.018 66.5 232.218 65.9 233.818 65.5 C 235.318 65.2 239.618 63.1 243.318 60.9 C 247.118 58.8 250.618 57 251.118 57 C 252.118 57 269.018 48.1 270.418 46.9 C 271.018 46.4 273.818 46 276.618 46 C 282.518 46 282.118 45.6 284.018 55.5 C 284.718 58.8 285.618 63.3 286.218 65.5 C 286.718 67.7 287.418 72.2 287.718 75.5 C 288.218 81.5 288.218 81.5 284.818 83.4 C 283.018 84.5 281.318 85.7 281.018 86 C 280.718 86.4 278.518 87.8 276.018 89 C 273.618 90.3 270.018 92.3 268.018 93.6 C 263.218 96.6 256.218 100.7 252.018 102.8 C 250.118 103.7 248.418 104.8 248.218 105.3 C 248.018 105.7 247.218 106 246.418 106 C 245.718 106 242.418 107.7 239.318 109.7 C 236.118 111.8 229.818 115.4 225.218 117.7 C 220.618 120.1 214.318 123.7 211.218 125.7 C 208.118 127.8 204.318 130 202.818 130.7 C 201.218 131.4 198.018 133.3 195.618 135 C 193.118 136.6 190.518 138 189.718 138 C 188.918 138 188.018 138.6 187.718 139.3 C 187.418 139.9 184.118 142.1 180.418 144 C 176.618 145.9 173.118 147.9 172.518 148.3 C 172.018 148.8 169.718 150.1 167.518 151.4 C 164.018 153.3 163.418 154.1 162.618 158.5 C 161.518 164.4 161.218 275 162.318 276.7 C 163.018 277.8 169.718 274.8 181.318 268.2 C 183.518 266.9 186.818 266 189.418 266 C 192.918 266 193.918 266.4 194.818 268.4 C 195.418 269.7 197.118 272.3 198.718 274.1 C 202.818 279 206.018 285.4 206.018 288.7 C 206.018 291.9 202.118 294.8 184.618 304.9 C 170.818 312.9 165.318 316.9 164.618 319.3 C 164.318 320.5 164.418 328.9 165.018 338 C 165.518 347.1 166.418 364.9 167.018 377.5 C 169.318 426.5 172.218 462.2 176.018 489.2 C 177.718 500.4 177.318 504.2 174.518 506.3 C 169.418 510 155.718 512.4 152.318 510.2 Z " fill="rgb(0,0,0)"/></g></svg>