<?xml version="1.0" encoding="UTF-8" standalone="no"?>
<!-- Generator: Gravit.io -->
<svg xmlns="http://www.w3.org/2000/svg" xmlns:xlink="http://www.w3.org/1999/xlink" style="isolation:isolate" viewBox="208.048 118 856.634 742.645" width="856.634pt" height="742.645pt"><g><path d=" M 760 860.1 C 759.2 859.6 756 858.2 753 857 C 741.2 852.2 738.8 844.8 745.9 834.9 C 749.6 829.8 754.9 825 756.8 825 C 757.3 825 760.3 823.9 763.4 822.5 C 766.5 821.1 770.1 820 771.3 820 C 772.6 820 774.5 819.3 775.6 818.5 C 776.9 817.5 780.2 817.1 786.4 817 C 791.3 817 801.4 816.3 808.9 815.5 C 832.1 813 838 812.2 839.5 811 C 840.1 810.6 842.1 809.7 844.1 809.1 C 848.5 807.7 854 801.9 854 798.7 C 854 797.3 852.3 793 850.3 788.9 C 847 782.5 846 781.4 843.1 780.7 C 838.6 779.6 835.4 777.5 830.2 772.3 C 827.4 769.4 825.1 768 823.4 768 C 821.1 768 816.1 765.6 812.5 762.8 C 806.4 758.1 800 751.2 799.5 749 C 799.2 747.4 798.3 745.9 797.6 745.7 C 796.9 745.4 795.3 742.6 794 739.5 L 791.7 733.7 L 789.5 740.1 C 788.3 743.6 786.9 747.6 786.3 749 C 785.7 750.4 785 752.9 784.6 754.5 C 783.7 758.4 775.5 767.2 770.7 769.4 C 765.8 771.6 758.4 773.7 749 775.5 C 744.9 776.2 739.5 777.4 737 778 C 734.5 778.6 727.3 779.5 721 780 C 714.7 780.5 703.2 781.6 695.5 782.5 C 669.1 785.4 666.9 785.4 662.3 783.4 C 659.2 782 658 780.9 657.6 778.7 C 656.5 773.1 657 767.5 659 763.7 C 660.1 761.7 660.7 760 660.3 760 C 659.8 760 656.8 760.9 653.5 761.9 C 650.2 763 644.8 764.4 641.5 765 C 633.2 766.5 588.3 768.2 578.1 767.5 C 569.9 766.8 569.7 766.8 567.4 769.6 C 566.1 771.1 565 772.7 565 773.2 C 565 773.7 563.9 775.3 562.5 776.8 C 561.1 778.3 560 779.8 560 780.2 C 560 780.7 559.2 781.9 558.3 782.9 C 555.4 786 554.1 787.4 553 788.5 C 552.5 789.1 548.5 793.2 544.3 797.7 C 536.6 805.8 528.8 811.4 518 816.6 C 512.9 819 511.8 819.2 504 818.6 C 497 818.1 495.2 817.6 493.7 815.9 C 492.1 813.8 491.5 813.8 483.7 814.6 C 479.2 815.1 469.7 815.5 462.5 815.5 C 452.1 815.5 448.9 815.1 446.3 813.7 C 444.5 812.7 443 811.4 443 810.6 C 443 809.6 441.9 809.5 437.7 810.2 C 434.9 810.6 428 811.1 422.5 811.2 C 414.1 811.4 411.8 811.1 408 809.3 C 403.1 807 397.6 802.4 396.7 799.9 C 396.3 798.6 393.9 798.2 383.8 797.7 C 371.8 797.2 364.5 795.5 357 791.6 C 355.5 790.8 348.9 790 341 789.6 C 333.6 789.3 322.6 788.3 316.5 787.5 C 310.5 786.7 299.6 785.7 292.4 785.4 C 280.8 784.8 278.3 785 270.5 787 C 265.6 788.2 260.5 789.7 259.1 790.2 C 249.7 793.9 250.1 793.9 237.9 795 C 229.7 795.8 225.8 795.8 223.1 794.9 C 208.7 790.3 207.5 789.1 208.2 779.5 C 208.7 774.3 209.2 772.8 211.8 770.2 C 213.4 768.5 214.9 766.7 215.1 766.2 C 215.8 764.4 231.5 755.6 240.5 752 C 241.6 751.6 244.1 750.5 246.2 749.6 C 248.2 748.7 250.2 748 250.8 748 C 251.3 748 254 747.3 256.6 746.5 C 259.3 745.7 267.6 743.9 275 742.6 C 286.5 740.4 292.4 740 315 739.6 C 349.1 739 403.3 736.3 408.2 734.9 C 410.3 734.4 412 733.6 412 733.1 C 412 732.7 408.8 731.7 405 731 C 401.1 730.3 397.7 729.2 397.3 728.7 C 397 728.2 396.3 728.9 395.6 730.2 C 394.6 732.1 393.5 732.6 389 732.8 C 381 733.3 368.3 731.2 363.1 728.5 C 353.4 723.7 339.5 719.7 324.4 717.4 C 311 715.4 291.7 715.9 282.5 718.5 C 279.2 719.5 275 720.5 273.2 720.7 C 271.4 721 269.7 721.6 269.4 722.1 C 269.1 722.6 267.2 723 265.2 723 C 263.1 723 259.7 723.9 257.5 725 C 253 727.3 246.2 727.6 239.3 725.8 C 232.2 724.1 230.6 721.8 230.2 713.5 C 229.9 707.1 230.1 706.1 232.9 702 C 234.6 699.5 237.6 696.4 239.7 695 C 241.8 693.6 244.3 691.8 245.2 690.9 C 247.6 688.8 257.2 684.5 264.1 682.5 C 273.7 679.7 285.3 678.8 317 678.4 C 344.6 678 367.6 676.7 368.8 675.5 C 370 674.4 367.8 672 365.6 672 C 361 672 356.7 666.9 351.9 655.8 C 347.3 645 343.6 640.3 336.1 635.5 C 333.8 634.1 330.8 633 329.3 633 C 324.9 632.9 287.5 622.9 284 620.9 C 283.2 620.4 280.7 619.2 278.5 618.3 C 276.3 617.4 271.2 614.9 267.1 612.8 C 263.1 610.7 258 608.5 255.9 608 C 253.7 607.4 252 606.5 252 606.1 C 252 605.6 250.9 604.9 249.5 604.6 C 248.1 604.2 247 603.5 247 603 C 247 602.4 246.1 602 245.1 602 C 244 602 242.8 601.5 242.5 601 C 242.1 600.4 240.1 598.8 237.9 597.4 C 235.8 596.1 234 594.6 234 594.2 C 234 593.8 231.5 590.7 228.5 587.5 C 222.4 580.9 221.4 577.6 222.2 567 C 222.6 561.8 223.1 560.5 226.1 557.5 C 230.4 553.2 233.5 552.3 248.5 551.5 C 255.1 551.1 263.8 549.9 267.7 548.9 C 271.7 547.9 276.4 547 278.2 547 C 281.3 547 295.5 542.6 297.5 541 C 299 539.8 318.8 529.7 323.5 527.8 C 325.7 526.9 330.7 525.2 334.5 524 C 341 522 341.8 521.5 343.8 517.7 C 345 515.4 346 513.1 346 512.6 C 346 511.2 351.5 498.8 357.8 486.2 C 364.1 473.6 368.7 468 372.7 468 C 378.4 468 382.5 470 384.3 473.8 C 387.1 479.7 391.9 499.1 392 505.1 C 392 509.8 394.6 511.1 397.2 507.8 C 398.2 506.5 399 504.8 399 503.9 C 399 503 399.7 501.7 400.5 501 C 401.3 500.3 402 499.4 402 498.9 C 402 498.4 403.2 496.1 404.6 493.9 C 406 491.6 409.2 485.9 411.7 481.2 C 417 471.1 422.5 463.6 425.8 462.1 C 432.4 459 438.4 462 439.4 468.9 C 440 473.2 442 507.2 442.3 518.4 L 442.5 526.3 L 447.4 528.9 C 450.1 530.3 453.9 533 455.8 534.8 C 457.8 536.5 459.8 538 460.2 538 C 460.6 538 461 538.6 461 539.4 C 461 540.1 462 541.5 463.3 542.3 C 471.1 548 479.8 553 486.2 555.4 C 504.5 562.3 506.3 563.5 507.4 569.1 C 508 572.4 508.5 572.9 513.3 574.3 C 516.1 575.2 523.7 576.8 530 578 C 536.3 579.1 544 580.5 547 581.2 C 557.9 583.7 589.7 582.1 603 578.4 C 624.4 572.5 638 568 641.2 565.9 C 642.6 564.8 644.1 564 644.5 564 C 644.8 564 646.6 562.9 648.4 561.5 C 650.2 560.1 652.2 559 652.8 559 C 653.4 559 654 558.7 654.2 558.3 C 654.6 557.2 660.9 554 662.6 554 C 663.4 554 664 553.6 664 553 C 664 552.5 664.6 552 665.3 552 C 666.1 552 667.5 551.1 668.5 550 C 669.5 548.9 670.9 548 671.6 548 C 672.3 548 673 547.7 673.2 547.3 C 673.6 546.3 680.5 541.8 686.8 538.3 C 689.4 536.9 691.9 535.1 692.3 534.4 C 692.7 533.6 693.5 533 694.1 533 C 695.2 533 701.3 528.9 701.8 527.8 C 702 527.3 702.6 527 703.1 527 C 704.3 527 713.9 519.3 723 511.1 C 726.6 507.8 731.1 503.9 733 502.3 C 734.9 500.8 737.5 498.5 738.9 497.2 C 740.3 495.9 742.8 494.2 744.6 493.4 C 746.3 492.6 748.2 490.8 748.8 489.5 C 749.5 488.1 750.5 487 751.1 487 C 751.7 487 753.7 485.8 755.5 484.3 C 760.9 479.6 767.2 474.6 769.6 473 C 775.6 468.9 781.6 464.5 782.5 463.4 C 783.1 462.8 785.5 461 788 459.5 C 790.5 457.9 792.7 456.4 793 456 C 793.3 455.6 794.9 454.6 796.5 453.7 C 798.2 452.9 800.6 451.1 802 449.9 C 803.4 448.6 806.4 446.6 808.5 445.5 C 810.7 444.4 813 443 813.6 442.4 C 814.3 441.8 816.3 440.7 818.2 440 C 820 439.3 823.4 437.9 825.8 436.9 C 828.2 435.8 831.9 434.2 834.2 433.3 C 836.5 432.4 839.2 430.8 840.2 429.8 C 841.2 428.8 842.8 428 843.8 428 C 844.9 428 847.2 427.2 849.1 426.3 C 853.4 424 862.5 422.3 876.8 420.8 C 888.9 419.5 900.5 420.7 906.3 423.7 C 912 426.6 916.4 423.9 926.8 411 C 928.9 408.5 932 404.9 933.7 403 C 935.5 401.1 937 398.7 937 397.8 C 937 396.8 937.3 396 937.8 396 C 938.2 396 940.8 392.6 943.5 388.6 C 946.3 384.5 949.3 380.9 950.3 380.7 C 951.2 380.4 952 379.3 952 378.2 C 952 375.8 955 369.8 956.8 368.7 C 957.4 368.3 958 367 958 366 C 958 365 958.5 363.8 959 363.5 C 960 362.9 962.7 357.3 964.9 351 C 965.6 349.1 966.6 346.6 967 345.5 C 967.5 344.4 968.4 341 969 338 C 969.7 335 970.6 331.8 971.1 330.8 C 971.5 329.9 972 315.1 972.1 297.8 C 972.3 266 972.2 264.5 968.1 245.5 C 966.5 238 964.2 226.5 963.5 222.8 C 963.2 220.8 962.3 217.8 961.5 216.3 C 960.7 214.8 960 212.3 960 210.9 C 960 209.5 959.7 208 959.3 207.6 C 958.8 207.2 958 204.7 957.3 202.2 C 956.6 199.6 954.9 193.9 953.5 189.5 C 952 185.1 950 178.6 948.9 175 C 947.7 171.4 946 166.6 944.9 164.3 C 943.9 161.9 943 159.6 943 159.2 C 943 158.2 932 142.4 929.7 140 C 925.9 136.1 924 131.4 924 125.9 C 924 120.9 924.3 120.2 926.5 119.2 C 927.9 118.5 930.3 118 931.8 118 C 935 118 942.6 120.7 946.2 123.2 C 947.6 124.2 949.3 125 949.8 125 C 950.4 125 954.6 127.5 959.2 130.6 C 963.7 133.7 969.4 137.3 971.7 138.5 C 973.9 139.7 976.4 141.3 977.2 141.9 C 977.9 142.5 981.2 144.8 984.6 146.9 C 998.9 155.9 1025.5 183.8 1040 204.9 C 1041.9 207.7 1045.1 212.2 1047.1 214.9 C 1056.2 227.3 1063.3 243.6 1064.6 255.5 C 1065.2 260.4 1062.4 266.4 1059.4 266.8 L 1057.3 267.1 L 1059.3 272.8 C 1063.9 286.4 1064.4 289.4 1064.4 302.2 C 1064.4 314.8 1064.3 315 1061.6 317.9 L 1058.9 320.7 L 1061.6 331.1 C 1064.1 340.9 1064.2 342.3 1063.6 356.3 C 1063.2 365 1062.4 372.5 1061.6 374.3 C 1060 378.1 1055.4 383.3 1052.3 384.9 C 1050.2 386 1050 386.8 1050 393.3 C 1050 400.1 1047.7 411.2 1044.8 419 C 1042.9 424.1 1037.4 433.3 1034.7 436.1 C 1033.4 437.4 1031.8 439.5 1031.1 440.8 C 1030.5 442 1029.3 443 1028.5 443 C 1027.7 443 1027 443.5 1027 444 C 1027 444.6 1026.4 445 1025.7 445 C 1025 445 1024 445.8 1023.3 446.9 C 1021.1 450.5 1008.7 455.8 1000.8 456.6 C 996.8 456.9 992.8 457.8 992 458.5 C 987.5 462.3 969.3 474 967.8 474 C 966.9 474 965.9 474.4 965.5 474.9 C 965.2 475.4 962.5 476.6 959.5 477.5 C 956.5 478.3 954 479.3 954 479.7 C 954 480.4 955.5 486.3 957.6 493.5 C 960.8 504.6 963.9 527.7 964 540 C 964 545.2 964.5 551.3 965.1 553.5 C 965.7 555.7 966.8 560.4 967.6 564 C 968.3 567.6 969.4 572.5 969.9 575 C 971.5 582.2 971.2 599.2 969.4 604.7 C 966.9 612.1 963.4 616.7 959.5 617.4 C 955.6 618.2 955 619.6 955 630 C 955 638.4 952.5 653.3 951 653.8 C 950.4 654 949.7 655.9 949.4 658.1 C 948.5 663.7 942.5 669 937.1 669 C 933.2 669 933.2 669 932.1 674.1 C 930.8 680.2 925.4 690 920.6 695.3 C 917.9 698.2 916.3 699 913.7 699 C 909.5 699 908.2 700.4 903.6 710.1 C 898.2 721.3 897.3 732.5 898.9 767.9 C 900.2 797.3 899.6 814.2 897.4 816.1 C 896.6 816.7 896 818.3 896 819.6 C 896 820.9 894.8 824.9 893.4 828.4 C 891.4 833.5 890.2 835.2 887.6 836.4 C 885.8 837.3 883.7 838.6 883 839.5 C 882.3 840.3 880.9 841 879.9 841 C 878.9 841 877.9 841.4 877.6 841.8 C 877.3 842.3 872.6 843.2 867 843.9 C 861.5 844.6 857 845.6 857 846 C 857 846.5 854.6 847 851.8 847.3 C 844.8 848 838.4 849.5 821.5 854.3 C 813.8 856.4 804.4 858.6 800.5 859.2 C 790.6 860.5 761.8 861.2 760 860.1 Z  M 701 747 C 702.3 746.1 702.3 746 701 746.1 C 700.2 746.1 698.6 746.5 697.5 747 L 695.5 747.9 L 697.5 747.9 C 698.6 747.9 700.2 747.5 701 747 Z  M 722.8 744.5 C 726.3 743.7 730.3 742.4 731.9 741.6 C 736.2 739.3 741 734.7 741 732.8 C 741 731.4 740.4 731.2 737.8 731.7 C 736 732 733.4 732.9 732 733.7 C 730.6 734.4 729 735 728.3 735 C 727.7 735 727 735.4 726.8 735.8 C 726.7 736.2 723.1 737.8 718.9 739.3 C 714.7 740.8 709.3 742.9 706.9 743.9 L 702.5 745.9 L 709.5 745.9 C 713.4 745.9 719.3 745.3 722.8 744.5 Z " fill="rgb(0,0,0)"/><path d=" M 325.9 567.2 C 323.2 564.8 322.8 563.9 323.4 561.6 C 324.2 558.3 326.4 558.6 326.9 562.1 C 327 563.4 327.7 564.8 328.3 565.2 C 329.7 566.1 333.9 563.9 336.9 560.6 C 339.7 557.6 342 557.2 342 559.8 C 342 561.9 332.5 569.8 329.8 570 C 329.4 570 327.6 568.7 325.9 567.2 Z " fill="rgb(255,255,255)"/></g></svg>